<svg xmlns="http://www.w3.org/2000/svg" viewBox="0 0 1200 660" width="1200" height="660">
  <defs>
    <style>
      text { font-family: 'Amazon Ember', 'Helvetica Neue', Arial, sans-serif; }
    </style>
    <marker id="arr" markerWidth="8" markerHeight="6" refX="7" refY="3" orient="auto">
      <polygon points="0 0, 8 3, 0 6" fill="#545B64"/>
    </marker>
    <marker id="arr-v" markerWidth="8" markerHeight="6" refX="7" refY="3" orient="auto">
      <polygon points="0 0, 8 3, 0 6" fill="#7B61FF"/>
    </marker>
    <marker id="arr-r" markerWidth="8" markerHeight="6" refX="7" refY="3" orient="auto">
      <polygon points="0 0, 8 3, 0 6" fill="#DD344C"/>
    </marker>
    <marker id="arr-p" markerWidth="8" markerHeight="6" refX="7" refY="3" orient="auto">
      <polygon points="0 0, 8 3, 0 6" fill="#E7157B"/>
    </marker>
    <filter id="sh" x="-5%" y="-5%" width="116%" height="116%">
      <feDropShadow dx="0" dy="1" stdDeviation="2" flood-color="#0000001A"/>
    </filter>
  </defs>

  <!-- ─── Background ─── -->
  <rect width="1200" height="660" fill="#FFFFFF"/>

  <!-- ─── Title ─── -->
  <text x="600" y="26" text-anchor="middle" font-size="15" font-weight="700" fill="#16191F">Optivue — FinOps Agent Architecture on AWS</text>
  <line x1="40" y1="35" x2="1160" y2="35" stroke="#E1E4E8" stroke-width="1"/>

  <!-- ─── AWS Cloud boundary ─── -->
  <rect x="106" y="44" width="1086" height="602" rx="8"
        fill="none" stroke="#AAB7B8" stroke-width="1.5" stroke-dasharray="8,4"/>
  <rect x="106" y="38" width="78" height="16" fill="#FFFFFF"/>
  <text x="113" y="50" font-size="9" fill="#FF9900" font-weight="700">▲ AWS Cloud</text>

  <!-- ════════════════════════════════════════
       USERS  (outside AWS)
  ════════════════════════════════════════ -->
  <g id="users">
    <!-- Analyst -->
    <circle cx="52" cy="170" r="20" fill="#EBF5FB" stroke="#AAB7B8" stroke-width="1.2"/>
    <text x="52" y="165" text-anchor="middle" font-size="17">👤</text>
    <text x="52" y="180" text-anchor="middle" font-size="7" fill="#16191F" font-weight="600">FinOps Analyst</text>

    <!-- Eng Manager -->
    <circle cx="52" cy="260" r="20" fill="#EBF5FB" stroke="#AAB7B8" stroke-width="1.2"/>
    <text x="52" y="255" text-anchor="middle" font-size="17">👤</text>
    <text x="52" y="270" text-anchor="middle" font-size="7" fill="#16191F" font-weight="600">Eng Manager</text>

    <!-- Leadership -->
    <circle cx="52" cy="350" r="20" fill="#EBF5FB" stroke="#AAB7B8" stroke-width="1.2"/>
    <text x="52" y="345" text-anchor="middle" font-size="17">👤</text>
    <text x="52" y="360" text-anchor="middle" font-size="7" fill="#16191F" font-weight="600">Finance / Leader</text>
  </g>

  <!-- ════════════════════════════════════════
       ZONE 1 — FRONTEND &amp; AUTH
  ════════════════════════════════════════ -->
  <rect x="114" y="52" width="186" height="400" rx="6"
        fill="#F2F8FD" stroke="#AAB7B8" stroke-width="1" stroke-dasharray="5,3"/>
  <text x="207" y="68" text-anchor="middle" font-size="9" font-weight="600" fill="#545B64">Frontend &amp; Auth</text>

  <!-- Amplify -->
  <rect x="128" y="78" width="158" height="90" rx="6" fill="#fff" stroke="#E1E4E8" stroke-width="1" filter="url(#sh)"/>
  <rect x="128" y="78" width="158" height="26" rx="6" fill="#E7157B"/>
  <rect x="128" y="96" width="158" height="8" fill="#E7157B"/>
  <text x="207" y="95" text-anchor="middle" font-size="10" font-weight="700" fill="#fff">AWS Amplify</text>
  <text x="207" y="120" text-anchor="middle" font-size="9" fill="#16191F">Next.js 15 Hosting</text>
  <text x="207" y="134" text-anchor="middle" font-size="8.5" fill="#545B64">Chat UI · Approval modal</text>
  <text x="207" y="148" text-anchor="middle" font-size="8.5" fill="#545B64">Role-aware dashboards</text>

  <!-- Cognito -->
  <rect x="128" y="182" width="158" height="90" rx="6" fill="#fff" stroke="#E1E4E8" stroke-width="1" filter="url(#sh)"/>
  <rect x="128" y="182" width="158" height="26" rx="6" fill="#DD344C"/>
  <rect x="128" y="200" width="158" height="8" fill="#DD344C"/>
  <text x="207" y="199" text-anchor="middle" font-size="10" font-weight="700" fill="#fff">Amazon Cognito</text>
  <text x="207" y="224" text-anchor="middle" font-size="9" fill="#16191F">JWT Auth · 4 Role Groups</text>
  <text x="207" y="238" text-anchor="middle" font-size="8.5" fill="#545B64">finops-analyst · eng-manager</text>
  <text x="207" y="252" text-anchor="middle" font-size="8.5" fill="#545B64">finance · leadership</text>

  <!-- API Gateway -->
  <rect x="128" y="286" width="158" height="80" rx="6" fill="#fff" stroke="#E1E4E8" stroke-width="1" filter="url(#sh)"/>
  <rect x="128" y="286" width="158" height="26" rx="6" fill="#E7157B"/>
  <rect x="128" y="304" width="158" height="8" fill="#E7157B"/>
  <text x="207" y="303" text-anchor="middle" font-size="10" font-weight="700" fill="#fff">API Gateway</text>
  <text x="207" y="328" text-anchor="middle" font-size="9" fill="#16191F">REST API · JWT Authorizer</text>
  <text x="207" y="342" text-anchor="middle" font-size="8.5" fill="#545B64">/cost  /recs  /actions  /health</text>
  <text x="207" y="356" text-anchor="middle" font-size="8.5" fill="#545B64">CORS · throttling · WAF-ready</text>

  <!-- ════════════════════════════════════════
       ZONE 2 — COMPUTE
  ════════════════════════════════════════ -->
  <rect x="312" y="52" width="186" height="400" rx="6"
        fill="#FEF9F0" stroke="#AAB7B8" stroke-width="1" stroke-dasharray="5,3"/>
  <text x="405" y="68" text-anchor="middle" font-size="9" font-weight="600" fill="#545B64">Compute</text>

  <!-- Lambda -->
  <rect x="326" y="78" width="158" height="104" rx="6" fill="#fff" stroke="#E1E4E8" stroke-width="1" filter="url(#sh)"/>
  <rect x="326" y="78" width="158" height="26" rx="6" fill="#ED7100"/>
  <rect x="326" y="96" width="158" height="8" fill="#ED7100"/>
  <text x="405" y="95" text-anchor="middle" font-size="10" font-weight="700" fill="#fff">AWS Lambda</text>
  <text x="405" y="120" text-anchor="middle" font-size="9" fill="#16191F">FastAPI · Mangum (ASGI)</text>
  <text x="405" y="134" text-anchor="middle" font-size="8.5" fill="#545B64">Python 3.12</text>
  <text x="405" y="148" text-anchor="middle" font-size="8.5" fill="#545B64">Routers · Services · Middleware</text>
  <text x="405" y="162" text-anchor="middle" font-size="7.5" fill="#879596">IAM least-privilege execution role</text>
  <text x="405" y="175" text-anchor="middle" font-size="7.5" fill="#879596">Structured JSON logging</text>

  <!-- Secrets Manager -->
  <rect x="326" y="196" width="158" height="80" rx="6" fill="#fff" stroke="#E1E4E8" stroke-width="1" filter="url(#sh)"/>
  <rect x="326" y="196" width="158" height="26" rx="6" fill="#DD344C"/>
  <rect x="326" y="214" width="158" height="8" fill="#DD344C"/>
  <text x="405" y="213" text-anchor="middle" font-size="10" font-weight="700" fill="#fff">Secrets Manager</text>
  <text x="405" y="238" text-anchor="middle" font-size="9" fill="#16191F">Zero plaintext credentials</text>
  <text x="405" y="252" text-anchor="middle" font-size="8.5" fill="#545B64">finops/jira-api-token</text>
  <text x="405" y="266" text-anchor="middle" font-size="8.5" fill="#545B64">finops/slack-webhook-url</text>

  <!-- CloudWatch -->
  <rect x="326" y="290" width="158" height="80" rx="6" fill="#fff" stroke="#E1E4E8" stroke-width="1" filter="url(#sh)"/>
  <rect x="326" y="290" width="158" height="26" rx="6" fill="#E7157B"/>
  <rect x="326" y="308" width="158" height="8" fill="#E7157B"/>
  <text x="405" y="307" text-anchor="middle" font-size="10" font-weight="700" fill="#fff">Amazon CloudWatch</text>
  <text x="405" y="332" text-anchor="middle" font-size="9" fill="#16191F">Logs · Metrics · Traces</text>
  <text x="405" y="346" text-anchor="middle" font-size="8.5" fill="#545B64">Bedrock trace logging</text>
  <text x="405" y="360" text-anchor="middle" font-size="8.5" fill="#545B64">Correlation IDs · JSON logs</text>

  <!-- ════════════════════════════════════════
       ZONE 3 — BEDROCK AGENTS
  ════════════════════════════════════════ -->
  <rect x="510" y="52" width="310" height="400" rx="6"
        fill="#F0EEFF" stroke="#7B61FF" stroke-width="1.5" stroke-dasharray="6,3"/>
  <text x="665" y="68" text-anchor="middle" font-size="9" font-weight="700" fill="#7B61FF">Amazon Bedrock Agents</text>

  <!-- Supervisor -->
  <rect x="524" y="78" width="282" height="90" rx="6" fill="#fff" stroke="#7B61FF" stroke-width="1.5" filter="url(#sh)"/>
  <rect x="524" y="78" width="282" height="26" rx="6" fill="#7B61FF"/>
  <rect x="524" y="96" width="282" height="8" fill="#7B61FF"/>
  <text x="665" y="95" text-anchor="middle" font-size="10" font-weight="700" fill="#fff">Supervisor Agent — finops-supervisor</text>
  <text x="665" y="120" text-anchor="middle" font-size="9" fill="#16191F">Claude 3 Sonnet · Multi-agent orchestrator</text>
  <text x="665" y="134" text-anchor="middle" font-size="8.5" fill="#545B64">Routes queries to specialist agents · Role-aware output</text>
  <text x="665" y="148" text-anchor="middle" font-size="8.5" fill="#545B64">Grounded on tool data · No hallucinated dollar amounts</text>

  <!-- Specialist label -->
  <text x="665" y="186" text-anchor="middle" font-size="8" fill="#7B61FF" font-weight="600">Sub-agents  (specialist action groups)</text>

  <!-- cost-analysis sub-agent -->
  <rect x="524" y="194" width="86" height="240" rx="5" fill="#EDE7FF" stroke="#7B61FF" stroke-width="1"/>
  <rect x="524" y="194" width="86" height="22" rx="5" fill="#7B61FF"/>
  <rect x="524" y="209" width="86" height="7" fill="#7B61FF"/>
  <text x="567" y="209" text-anchor="middle" font-size="8" font-weight="700" fill="#fff">cost-analysis</text>
  <text x="567" y="232" text-anchor="middle" font-size="7.5" fill="#16191F" font-weight="600">Action Groups</text>
  <text x="567" y="247" text-anchor="middle" font-size="7" fill="#545B64">cost_by_period</text>
  <text x="567" y="260" text-anchor="middle" font-size="7" fill="#545B64">anomaly_explain</text>
  <text x="567" y="273" text-anchor="middle" font-size="7" fill="#545B64">budget_variance</text>
  <text x="567" y="286" text-anchor="middle" font-size="7" fill="#545B64">forecast</text>
  <line x1="530" y1="297" x2="604" y2="297" stroke="#C3AFF7" stroke-width="0.5"/>
  <text x="567" y="311" text-anchor="middle" font-size="6.5" fill="#879596">Athena queries</text>
  <text x="567" y="323" text-anchor="middle" font-size="6.5" fill="#879596">Cost Explorer API</text>
  <text x="567" y="335" text-anchor="middle" font-size="6.5" fill="#879596">Budgets API</text>
  <text x="567" y="347" text-anchor="middle" font-size="6.5" fill="#879596">Cost Anomaly</text>
  <text x="567" y="359" text-anchor="middle" font-size="6.5" fill="#879596">Detection</text>
  <line x1="530" y1="368" x2="604" y2="368" stroke="#C3AFF7" stroke-width="0.5"/>
  <text x="567" y="382" text-anchor="middle" font-size="6.5" fill="#7B61FF">data_freshness</text>
  <text x="567" y="394" text-anchor="middle" font-size="6.5" fill="#7B61FF">on every call</text>
  <text x="567" y="407" text-anchor="middle" font-size="6.5" fill="#7B61FF">DEMO_MODE=true</text>
  <text x="567" y="419" text-anchor="middle" font-size="6.5" fill="#7B61FF">→ fixtures/</text>

  <!-- optimization sub-agent -->
  <rect x="622" y="194" width="86" height="240" rx="5" fill="#EDE7FF" stroke="#7B61FF" stroke-width="1"/>
  <rect x="622" y="194" width="86" height="22" rx="5" fill="#7B61FF"/>
  <rect x="622" y="209" width="86" height="7" fill="#7B61FF"/>
  <text x="665" y="209" text-anchor="middle" font-size="8" font-weight="700" fill="#fff">optimization</text>
  <text x="665" y="232" text-anchor="middle" font-size="7.5" fill="#16191F" font-weight="600">Action Groups</text>
  <text x="665" y="247" text-anchor="middle" font-size="7" fill="#545B64">recommendations</text>
  <text x="665" y="260" text-anchor="middle" font-size="7" fill="#545B64">commitments</text>
  <text x="665" y="273" text-anchor="middle" font-size="7" fill="#545B64">idle_resources</text>
  <line x1="628" y1="284" x2="702" y2="284" stroke="#C3AFF7" stroke-width="0.5"/>
  <text x="665" y="298" text-anchor="middle" font-size="6.5" fill="#879596">Compute Optimizer</text>
  <text x="665" y="310" text-anchor="middle" font-size="6.5" fill="#879596">Trusted Advisor</text>
  <text x="665" y="322" text-anchor="middle" font-size="6.5" fill="#879596">Savings Plans API</text>
  <line x1="628" y1="334" x2="702" y2="334" stroke="#C3AFF7" stroke-width="0.5"/>
  <text x="665" y="348" text-anchor="middle" font-size="6.5" fill="#7B61FF">P1/P2/P3 scoring</text>
  <text x="665" y="360" text-anchor="middle" font-size="6.5" fill="#7B61FF">confidence ≥ 0.70</text>
  <text x="665" y="372" text-anchor="middle" font-size="6.5" fill="#7B61FF">auto-route threshold</text>
  <text x="665" y="384" text-anchor="middle" font-size="6.5" fill="#7B61FF">priority_score formula:</text>
  <text x="665" y="396" text-anchor="middle" font-size="6" fill="#879596">savings×.35+conf×.20</text>
  <text x="665" y="408" text-anchor="middle" font-size="6" fill="#879596">+effort×.20+risk×.15</text>
  <text x="665" y="420" text-anchor="middle" font-size="6" fill="#879596">+strategy×.10</text>

  <!-- governance sub-agent -->
  <rect x="720" y="194" width="86" height="240" rx="5" fill="#EDE7FF" stroke="#7B61FF" stroke-width="1"/>
  <rect x="720" y="194" width="86" height="22" rx="5" fill="#7B61FF"/>
  <rect x="720" y="209" width="86" height="7" fill="#7B61FF"/>
  <text x="763" y="209" text-anchor="middle" font-size="8" font-weight="700" fill="#fff">governance</text>
  <text x="763" y="232" text-anchor="middle" font-size="7.5" fill="#16191F" font-weight="600">Action Groups</text>
  <text x="763" y="247" text-anchor="middle" font-size="7" fill="#545B64">evaluate_risk</text>
  <text x="763" y="260" text-anchor="middle" font-size="7" fill="#545B64">request_approval</text>
  <text x="763" y="273" text-anchor="middle" font-size="7" fill="#545B64">tag_compliance</text>
  <line x1="726" y1="284" x2="800" y2="284" stroke="#C3AFF7" stroke-width="0.5"/>
  <text x="763" y="298" text-anchor="middle" font-size="6.5" fill="#879596">DynamoDB approvals</text>
  <text x="763" y="310" text-anchor="middle" font-size="6.5" fill="#879596">Policy rules engine</text>
  <line x1="726" y1="322" x2="800" y2="322" stroke="#C3AFF7" stroke-width="0.5"/>
  <text x="763" y="336" text-anchor="middle" font-size="6.5" fill="#DD344C" font-weight="600">dual-approval (prod)</text>
  <text x="763" y="348" text-anchor="middle" font-size="6.5" fill="#DD344C">4-hr token TTL</text>
  <text x="763" y="360" text-anchor="middle" font-size="6.5" fill="#DD344C">policy_blocked</text>
  <text x="763" y="372" text-anchor="middle" font-size="6.5" fill="#DD344C">on prod delete</text>
  <line x1="726" y1="384" x2="800" y2="384" stroke="#C3AFF7" stroke-width="0.5"/>
  <text x="763" y="398" text-anchor="middle" font-size="6.5" fill="#DD344C" font-weight="600">0 safety violations</text>
  <text x="763" y="410" text-anchor="middle" font-size="6.5" fill="#DD344C">hard requirement</text>

  <!-- ════════════════════════════════════════
       ZONE 4 — DATA &amp; ANALYTICS
  ════════════════════════════════════════ -->
  <rect x="832" y="52" width="358" height="230" rx="6"
        fill="#F2FDF4" stroke="#AAB7B8" stroke-width="1" stroke-dasharray="5,3"/>
  <text x="1011" y="68" text-anchor="middle" font-size="9" font-weight="600" fill="#545B64">Data &amp; Analytics</text>

  <!-- S3 -->
  <rect x="848" y="78" width="100" height="86" rx="5" fill="#fff" stroke="#E1E4E8" stroke-width="1" filter="url(#sh)"/>
  <rect x="848" y="78" width="100" height="24" rx="5" fill="#3F8624"/>
  <rect x="848" y="94" width="100" height="8" fill="#3F8624"/>
  <text x="898" y="94" text-anchor="middle" font-size="9.5" font-weight="700" fill="#fff">Amazon S3</text>
  <text x="898" y="118" text-anchor="middle" font-size="8.5" fill="#16191F">CUR / Data Exports</text>
  <text x="898" y="132" text-anchor="middle" font-size="7.5" fill="#545B64">cost_export_bucket</text>
  <text x="898" y="145" text-anchor="middle" font-size="7.5" fill="#545B64">athena_results_bucket</text>

  <!-- Glue -->
  <rect x="960" y="78" width="100" height="86" rx="5" fill="#fff" stroke="#E1E4E8" stroke-width="1" filter="url(#sh)"/>
  <rect x="960" y="78" width="100" height="24" rx="5" fill="#8C4FFF"/>
  <rect x="960" y="94" width="100" height="8" fill="#8C4FFF"/>
  <text x="1010" y="94" text-anchor="middle" font-size="9.5" font-weight="700" fill="#fff">AWS Glue</text>
  <text x="1010" y="118" text-anchor="middle" font-size="8.5" fill="#16191F">Data Catalog</text>
  <text x="1010" y="132" text-anchor="middle" font-size="7.5" fill="#545B64">finops_cost_db</text>
  <text x="1010" y="145" text-anchor="middle" font-size="7.5" fill="#545B64">cost_and_usage</text>

  <!-- Athena -->
  <rect x="1072" y="78" width="106" height="86" rx="5" fill="#fff" stroke="#E1E4E8" stroke-width="1" filter="url(#sh)"/>
  <rect x="1072" y="78" width="106" height="24" rx="5" fill="#8C4FFF"/>
  <rect x="1072" y="94" width="106" height="8" fill="#8C4FFF"/>
  <text x="1125" y="94" text-anchor="middle" font-size="9.5" font-weight="700" fill="#fff">Amazon Athena</text>
  <text x="1125" y="118" text-anchor="middle" font-size="8.5" fill="#16191F">Serverless SQL</text>
  <text x="1125" y="132" text-anchor="middle" font-size="7.5" fill="#545B64">finops-primary wg</text>
  <text x="1125" y="145" text-anchor="middle" font-size="7.5" fill="#545B64">Query CUR on S3</text>

  <!-- DynamoDB -->
  <rect x="848" y="178" width="330" height="88" rx="5" fill="#fff" stroke="#E1E4E8" stroke-width="1" filter="url(#sh)"/>
  <rect x="848" y="178" width="330" height="24" rx="5" fill="#3334B9"/>
  <rect x="848" y="194" width="330" height="8" fill="#3334B9"/>
  <text x="1013" y="194" text-anchor="middle" font-size="9.5" font-weight="700" fill="#fff">Amazon DynamoDB — 4 Tables · PAY_PER_REQUEST · PITR</text>
  <text x="930" y="220" text-anchor="middle" font-size="8" fill="#16191F">finops-recommendations</text>
  <text x="930" y="234" text-anchor="middle" font-size="7.5" fill="#545B64">REC# · by-owner-status GSI · by-priority GSI</text>
  <text x="930" y="248" text-anchor="middle" font-size="7.5" fill="#545B64">finops-action-history</text>
  <line x1="1010" y1="208" x2="1010" y2="258" stroke="#E1E4E8" stroke-width="1"/>
  <text x="1100" y="220" text-anchor="middle" font-size="8" fill="#16191F">finops-approvals</text>
  <text x="1100" y="234" text-anchor="middle" font-size="7.5" fill="#545B64">APPROVAL# · TTL 4 hours</text>
  <text x="1100" y="248" text-anchor="middle" font-size="7.5" fill="#545B64">finops-kpi-metrics</text>

  <!-- ════════════════════════════════════════
       ZONE 5 — COST &amp; OPTIMIZATION SERVICES
  ════════════════════════════════════════ -->
  <rect x="832" y="294" width="358" height="158" rx="6"
        fill="#FFF8F0" stroke="#AAB7B8" stroke-width="1" stroke-dasharray="5,3"/>
  <text x="1011" y="310" text-anchor="middle" font-size="9" font-weight="600" fill="#545B64">AWS Cost &amp; Optimization Services</text>

  <!-- Cost Explorer -->
  <rect x="848" y="318" width="158" height="64" rx="5" fill="#fff" stroke="#E1E4E8" stroke-width="1" filter="url(#sh)"/>
  <rect x="848" y="318" width="158" height="22" rx="5" fill="#ED7100"/>
  <rect x="848" y="333" width="158" height="7" fill="#ED7100"/>
  <text x="927" y="333" text-anchor="middle" font-size="9" font-weight="700" fill="#fff">AWS Cost Explorer</text>
  <text x="927" y="354" text-anchor="middle" font-size="8.5" fill="#16191F">Spend queries · Forecast</text>
  <text x="927" y="368" text-anchor="middle" font-size="7.5" fill="#545B64">Cost Anomaly Detection</text>
  <text x="927" y="380" text-anchor="middle" font-size="7.5" fill="#545B64">get_anomalies API</text>

  <!-- Compute Optimizer + Trusted Advisor -->
  <rect x="1018" y="318" width="158" height="64" rx="5" fill="#fff" stroke="#E1E4E8" stroke-width="1" filter="url(#sh)"/>
  <rect x="1018" y="318" width="158" height="22" rx="5" fill="#ED7100"/>
  <rect x="1018" y="333" width="158" height="7" fill="#ED7100"/>
  <text x="1097" y="333" text-anchor="middle" font-size="9" font-weight="700" fill="#fff">Compute Optimizer</text>
  <text x="1097" y="354" text-anchor="middle" font-size="8.5" fill="#16191F">EC2 rightsizing recs</text>
  <text x="1097" y="368" text-anchor="middle" font-size="7.5" fill="#545B64">Trusted Advisor checks</text>
  <text x="1097" y="380" text-anchor="middle" font-size="7.5" fill="#545B64">Savings Plans API</text>

  <!-- Budgets -->
  <rect x="848" y="394" width="158" height="42" rx="5" fill="#fff" stroke="#E1E4E8" stroke-width="1" filter="url(#sh)"/>
  <rect x="848" y="394" width="158" height="20" rx="5" fill="#ED7100"/>
  <rect x="848" y="407" width="158" height="7" fill="#ED7100"/>
  <text x="927" y="407" text-anchor="middle" font-size="8.5" font-weight="700" fill="#fff">AWS Budgets</text>
  <text x="927" y="426" text-anchor="middle" font-size="7.5" fill="#545B64">Budget variance · Policy enforcement</text>

  <!-- Savings Plans -->
  <rect x="1018" y="394" width="158" height="42" rx="5" fill="#fff" stroke="#E1E4E8" stroke-width="1" filter="url(#sh)"/>
  <rect x="1018" y="394" width="158" height="20" rx="5" fill="#ED7100"/>
  <rect x="1018" y="407" width="158" height="7" fill="#ED7100"/>
  <text x="1097" y="407" text-anchor="middle" font-size="8.5" font-weight="700" fill="#fff">Savings Plans</text>
  <text x="1097" y="426" text-anchor="middle" font-size="7.5" fill="#545B64">Commitment analysis · 1yr / 3yr</text>

  <!-- ════════════════════════════════════════
       ZONE 6 — WORKFLOW &amp; NOTIFICATIONS
  ════════════════════════════════════════ -->
  <rect x="114" y="464" width="704" height="160" rx="6"
        fill="#F2FDF4" stroke="#AAB7B8" stroke-width="1" stroke-dasharray="5,3"/>
  <text x="466" y="480" text-anchor="middle" font-size="9" font-weight="600" fill="#545B64">Action Workflow &amp; Notifications</text>

  <!-- EventBridge -->
  <rect x="130" y="490" width="148" height="80" rx="5" fill="#fff" stroke="#E1E4E8" stroke-width="1" filter="url(#sh)"/>
  <rect x="130" y="490" width="148" height="24" rx="5" fill="#E7157B"/>
  <rect x="130" y="506" width="148" height="8" fill="#E7157B"/>
  <text x="204" y="506" text-anchor="middle" font-size="9.5" font-weight="700" fill="#fff">Amazon EventBridge</text>
  <text x="204" y="530" text-anchor="middle" font-size="8.5" fill="#16191F">ApprovalConfirmed event</text>
  <text x="204" y="544" text-anchor="middle" font-size="7.5" fill="#545B64">KPI cron · Mon 06:00Z</text>
  <text x="204" y="558" text-anchor="middle" font-size="7.5" fill="#545B64">Anomaly monitor trigger</text>

  <!-- Step Functions -->
  <rect x="290" y="490" width="250" height="116" rx="5" fill="#fff" stroke="#E1E4E8" stroke-width="1" filter="url(#sh)"/>
  <rect x="290" y="490" width="250" height="24" rx="5" fill="#E7157B"/>
  <rect x="290" y="506" width="250" height="8" fill="#E7157B"/>
  <text x="415" y="506" text-anchor="middle" font-size="9.5" font-weight="700" fill="#fff">AWS Step Functions</text>
  <text x="415" y="530" text-anchor="middle" font-size="8.5" fill="#16191F">finops-action-workflow</text>
  <text x="415" y="544" text-anchor="middle" font-size="8" fill="#545B64">ValidateApproval → CreateTicket</text>
  <text x="415" y="557" text-anchor="middle" font-size="8" fill="#545B64">→ NotifyOwner → UpdateActionState</text>
  <text x="415" y="571" text-anchor="middle" font-size="7.5" fill="#879596">ApprovalBlocked  (Fail state)</text>
  <text x="415" y="583" text-anchor="middle" font-size="7.5" fill="#879596">Full audit trail · Rollback path documented</text>
  <text x="415" y="597" text-anchor="middle" font-size="7.5" fill="#879596">Triggered by EventBridge ApprovalConfirmed</text>

  <!-- Jira -->
  <rect x="552" y="490" width="126" height="80" rx="5" fill="#fff" stroke="#0052CC" stroke-width="1.5" filter="url(#sh)"/>
  <rect x="552" y="490" width="126" height="24" rx="5" fill="#0052CC"/>
  <rect x="552" y="506" width="126" height="8" fill="#0052CC"/>
  <text x="615" y="506" text-anchor="middle" font-size="9.5" font-weight="700" fill="#fff">Jira REST API v3</text>
  <text x="615" y="530" text-anchor="middle" font-size="8.5" fill="#16191F">create_ticket adapter</text>
  <text x="615" y="544" text-anchor="middle" font-size="7.5" fill="#545B64">Project FINOPS</text>
  <text x="615" y="558" text-anchor="middle" font-size="7.5" fill="#545B64">FINOPS-#### created</text>

  <!-- Slack/Teams -->
  <rect x="690" y="490" width="118" height="80" rx="5" fill="#fff" stroke="#4A154B" stroke-width="1.5" filter="url(#sh)"/>
  <rect x="690" y="490" width="118" height="24" rx="5" fill="#4A154B"/>
  <rect x="690" y="506" width="118" height="8" fill="#4A154B"/>
  <text x="749" y="506" text-anchor="middle" font-size="9.5" font-weight="700" fill="#fff">Slack / Teams</text>
  <text x="749" y="530" text-anchor="middle" font-size="8.5" fill="#16191F">notify_owner adapter</text>
  <text x="749" y="544" text-anchor="middle" font-size="7.5" fill="#545B64">#finops-actions</text>
  <text x="749" y="558" text-anchor="middle" font-size="7.5" fill="#545B64">Owner notified per rec</text>

  <!-- ════════════════════════════════════════
       CDK / CI PANEL
  ════════════════════════════════════════ -->
  <rect x="832" y="464" width="358" height="98" rx="6" fill="#FFF8E1" stroke="#F5A623" stroke-width="1.5"/>
  <text x="1011" y="482" text-anchor="middle" font-size="9.5" font-weight="700" fill="#795548">AWS CDK (TypeScript) — 6 Stacks</text>
  <text x="1011" y="498" text-anchor="middle" font-size="8.5" fill="#545B64">FinOpsFoundation · FinOpsData · FinOpsAgent</text>
  <text x="1011" y="512" text-anchor="middle" font-size="8.5" fill="#545B64">FinOpsApi · FinOpsWorkflow · FinOpsFrontend</text>
  <text x="1011" y="526" text-anchor="middle" font-size="7.5" fill="#879596">Deploy order: Foundation → Data → Agent → Api → Workflow + Frontend</text>
  <line x1="838" y1="535" x2="1184" y2="535" stroke="#F5A623" stroke-width="0.5"/>
  <text x="1011" y="549" text-anchor="middle" font-size="8.5" font-weight="600" fill="#16191F">GitHub Actions CI/CD</text>
  <text x="1011" y="563" text-anchor="middle" font-size="7.5" fill="#545B64">ci.yml (lint · test · synth)  ·  deploy.yml  ·  eval.yml (weekly safety gate)</text>

  <!-- ════════════════════════════════════════
       FLOW ARROWS  (numbered)
  ════════════════════════════════════════ -->

  <!-- ① Users → Amplify -->
  <line x1="72" y1="225" x2="128" y2="145" stroke="#545B64" stroke-width="1.5" marker-end="url(#arr)"/>
  <circle cx="96" cy="183" r="9" fill="#545B64"/>
  <text x="96" y="187" text-anchor="middle" font-size="8" fill="#fff" font-weight="700">1</text>

  <!-- ② Amplify ↔ Cognito (auth) -->
  <line x1="207" y1="168" x2="207" y2="182" stroke="#DD344C" stroke-width="1.5" stroke-dasharray="4,2" marker-end="url(#arr-r)"/>
  <circle cx="222" cy="176" r="8" fill="#DD344C"/>
  <text x="222" y="180" text-anchor="middle" font-size="7.5" fill="#fff" font-weight="700">2</text>

  <!-- ③ Cognito validates → API GW -->
  <line x1="207" y1="272" x2="207" y2="286" stroke="#DD344C" stroke-width="1.5" stroke-dasharray="4,2" marker-end="url(#arr-r)"/>
  <circle cx="222" cy="279" r="8" fill="#DD344C"/>
  <text x="222" y="283" text-anchor="middle" font-size="7.5" fill="#fff" font-weight="700">3</text>

  <!-- ④ API GW → Lambda -->
  <line x1="300" y1="326" x2="326" y2="180" stroke="#545B64" stroke-width="1.5" marker-end="url(#arr)"/>
  <circle cx="312" cy="254" r="9" fill="#545B64"/>
  <text x="312" y="258" text-anchor="middle" font-size="8" fill="#fff" font-weight="700">4</text>

  <!-- ⑤ Lambda → Bedrock Supervisor -->
  <line x1="484" y1="128" x2="524" y2="118" stroke="#7B61FF" stroke-width="2" marker-end="url(#arr-v)"/>
  <circle cx="503" cy="124" r="9" fill="#7B61FF"/>
  <text x="503" y="128" text-anchor="middle" font-size="8" fill="#fff" font-weight="700">5</text>
  <text x="503" y="112" text-anchor="middle" font-size="7" fill="#7B61FF">invoke_agent()</text>

  <!-- ⑥ Bedrock → Data (Athena / DynamoDB) -->
  <line x1="820" y1="220" x2="848" y2="210" stroke="#3334B9" stroke-width="1.5" marker-end="url(#arr)"/>
  <circle cx="833" cy="215" r="9" fill="#3334B9"/>
  <text x="833" y="219" text-anchor="middle" font-size="8" fill="#fff" font-weight="700">6</text>

  <!-- ⑦ Bedrock → S3/Glue/Athena pipeline -->
  <line x1="820" y1="165" x2="848" y2="130" stroke="#3F8624" stroke-width="1.5" marker-end="url(#arr)"/>
  <circle cx="833" cy="147" r="9" fill="#3F8624"/>
  <text x="833" y="151" text-anchor="middle" font-size="8" fill="#fff" font-weight="700">7</text>
  <!-- S3 → Glue -->
  <line x1="948" y1="124" x2="960" y2="124" stroke="#3F8624" stroke-width="1.5" marker-end="url(#arr)"/>
  <!-- Glue → Athena -->
  <line x1="1060" y1="124" x2="1072" y2="124" stroke="#8C4FFF" stroke-width="1.5" marker-end="url(#arr)"/>

  <!-- ⑧ Bedrock → Cost Services -->
  <line x1="820" y1="360" x2="848" y2="360" stroke="#ED7100" stroke-width="1.5" marker-end="url(#arr)"/>
  <circle cx="833" cy="360" r="9" fill="#ED7100"/>
  <text x="833" y="364" text-anchor="middle" font-size="8" fill="#fff" font-weight="700">8</text>

  <!-- ⑨ Lambda → Step Functions (on approval) -->
  <line x1="405" y1="382" x2="380" y2="490" stroke="#E7157B" stroke-width="1.5" stroke-dasharray="5,3" marker-end="url(#arr-p)"/>
  <circle cx="390" cy="438" r="9" fill="#E7157B"/>
  <text x="390" y="442" text-anchor="middle" font-size="8" fill="#fff" font-weight="700">9</text>
  <text x="390" y="428" text-anchor="middle" font-size="7" fill="#E7157B">on approval</text>

  <!-- EventBridge → Step Functions -->
  <line x1="278" y1="530" x2="290" y2="530" stroke="#E7157B" stroke-width="1.5" marker-end="url(#arr-p)"/>

  <!-- Step Functions → Jira -->
  <line x1="540" y1="524" x2="552" y2="524" stroke="#0052CC" stroke-width="1.5" marker-end="url(#arr)"/>

  <!-- Step Functions → Slack -->
  <line x1="540" y1="538" x2="690" y2="538" stroke="#4A154B" stroke-width="1.5" marker-end="url(#arr)"/>

  <!-- Bedrock → EventBridge (ApprovalConfirmed event) -->
  <line x1="665" y1="452" x2="480" y2="490" stroke="#E7157B" stroke-width="1" stroke-dasharray="4,3" marker-end="url(#arr-p)"/>
  <text x="576" y="476" text-anchor="middle" font-size="7" fill="#E7157B">ApprovalConfirmed event</text>

  <!-- ════════════════════════════════════════
       LEGEND
  ════════════════════════════════════════ -->
  <rect x="114" y="634" width="1076" height="20" rx="4" fill="#F8F9FA"/>
  <text x="130" y="647" font-size="7.5" fill="#545B64" font-weight="600">Flow: </text>
  <circle cx="160" cy="643" r="6" fill="#545B64"/>
  <text x="160" y="647" text-anchor="middle" font-size="6" fill="#fff" font-weight="700">1</text>
  <text x="172" y="647" font-size="7" fill="#545B64">Browser</text>
  <circle cx="215" cy="643" r="6" fill="#DD344C"/>
  <text x="215" y="647" text-anchor="middle" font-size="6" fill="#fff" font-weight="700">2-3</text>
  <text x="228" y="647" font-size="7" fill="#545B64">Auth</text>
  <circle cx="262" cy="643" r="6" fill="#545B64"/>
  <text x="262" y="647" text-anchor="middle" font-size="6" fill="#fff" font-weight="700">4</text>
  <text x="274" y="647" font-size="7" fill="#545B64">API</text>
  <circle cx="308" cy="643" r="6" fill="#7B61FF"/>
  <text x="308" y="647" text-anchor="middle" font-size="6" fill="#fff" font-weight="700">5</text>
  <text x="320" y="647" font-size="7" fill="#545B64">Bedrock invoke</text>
  <circle cx="386" cy="643" r="6" fill="#3334B9"/>
  <text x="386" y="647" text-anchor="middle" font-size="6" fill="#fff" font-weight="700">6</text>
  <text x="398" y="647" font-size="7" fill="#545B64">DynamoDB</text>
  <circle cx="452" cy="643" r="6" fill="#3F8624"/>
  <text x="452" y="647" text-anchor="middle" font-size="6" fill="#fff" font-weight="700">7</text>
  <text x="464" y="647" font-size="7" fill="#545B64">S3→Glue→Athena</text>
  <circle cx="536" cy="643" r="6" fill="#ED7100"/>
  <text x="536" y="647" text-anchor="middle" font-size="6" fill="#fff" font-weight="700">8</text>
  <text x="548" y="647" font-size="7" fill="#545B64">Cost Services</text>
  <circle cx="600" cy="643" r="6" fill="#E7157B"/>
  <text x="600" y="647" text-anchor="middle" font-size="6" fill="#fff" font-weight="700">9</text>
  <text x="612" y="647" font-size="7" fill="#545B64">Approval → Step Functions → Jira + Slack</text>
  <!-- right side note -->
  <text x="1150" y="647" text-anchor="end" font-size="7" fill="#879596">DEMO_MODE=true → all adapters serve from fixtures/</text>

</svg>
